<?xml version="1.0" standalone="no"?>
<!DOCTYPE svg PUBLIC "-//W3C//DTD SVG 20010904//EN"
 "http://www.w3.org/TR/2001/REC-SVG-20010904/DTD/svg10.dtd">
<svg version="1.0" xmlns="http://www.w3.org/2000/svg"
 width="500.000000pt" height="500.000000pt" viewBox="0 0 500.000000 500.000000"
 preserveAspectRatio="xMidYMid meet">

<g transform="translate(0.000000,500.000000) scale(0.100000,-0.100000)"
fill="#000000" stroke="none">
<path d="M2135 4746 c-245 -44 -423 -103 -625 -207 -447 -231 -781 -573 -991
-1014 -96 -202 -146 -365 -112 -365 4 0 27 57 51 127 106 314 284 594 528 835
337 332 740 530 1223 603 151 22 454 20 606 -5 157 -25 233 -43 359 -84 648
-213 1169 -740 1377 -1395 21 -66 40 -93 55 -78 3 3 -10 52 -29 109 -239 714
-823 1257 -1547 1438 -183 46 -238 52 -505 56 -238 3 -271 2 -390 -20z"/>
<path d="M2255 4329 c-248 -33 -520 -138 -740 -287 -345 -232 -607 -592 -713
-982 -52 -188 -57 -234 -57 -480 0 -246 5 -292 57 -480 152 -556 597 -1017
1161 -1201 192 -63 269 -73 537 -73 216 0 257 2 347 22 595 130 1074 530 1293
1080 135 342 159 746 65 1107 -165 636 -693 1134 -1352 1276 -78 16 -142 21
-313 24 -118 2 -246 -1 -285 -6z m-369 -1356 c62 -13 80 -14 96 -4 11 7 21 11
23 9 2 -2 7 -63 11 -136 8 -157 -2 -169 -54 -67 -39 74 -101 149 -143 170 -43
23 -120 19 -159 -7 -42 -29 -76 -94 -89 -174 -14 -77 -14 -354 -1 -425 14 -77
58 -160 99 -186 52 -35 126 -32 180 7 43 31 101 112 135 188 10 23 26 42 34
42 13 0 14 -19 9 -137 -4 -75 -9 -138 -11 -140 -2 -3 -13 1 -24 8 -16 10 -34
9 -96 -4 -104 -23 -257 -22 -334 1 -114 36 -190 108 -233 221 -26 69 -36 229
-20 315 29 156 133 277 274 321 60 19 213 18 303 -2z m849 2 c71 -17 115 -19
115 -5 0 6 7 10 15 10 12 0 15 -20 15 -119 0 -66 3 -126 6 -135 11 -28 -24
-18 -42 12 -68 110 -110 166 -147 193 -38 28 -47 30 -104 27 -53 -3 -68 -9
-93 -33 -69 -66 -103 -269 -83 -497 17 -188 61 -280 145 -297 40 -9 98 2 109
21 5 7 9 79 9 161 l0 147 -40 0 c-29 0 -40 4 -40 15 0 13 27 15 185 15 158 0
185 -2 185 -15 0 -9 -9 -15 -25 -15 l-25 0 0 -175 c0 -100 -4 -175 -9 -175 -5
0 -23 8 -39 17 -28 16 -34 16 -131 -6 -130 -30 -265 -26 -356 9 -82 32 -163
113 -195 195 -28 72 -39 260 -21 344 33 153 130 261 276 307 55 17 217 17 290
-1z m768 0 c70 -18 99 -19 115 -3 6 6 13 10 15 7 3 -2 7 -59 11 -126 7 -140
-3 -156 -48 -79 -37 63 -125 157 -163 173 -52 21 -134 17 -174 -10 -45 -30
-61 -63 -55 -112 8 -63 43 -87 209 -139 215 -68 274 -124 285 -267 9 -127 -49
-238 -153 -292 -58 -30 -190 -35 -317 -12 -94 18 -98 18 -118 0 -11 -10 -23
-15 -27 -12 -11 11 -17 297 -6 297 6 0 26 -26 46 -59 87 -140 182 -211 285
-211 63 0 124 29 141 67 6 13 11 43 11 67 0 78 -44 112 -205 161 -170 52 -242
104 -270 197 -46 155 22 304 162 354 51 18 186 17 256 -1z"/>
<path d="M346 2968 c-14 -13 -28 -36 -32 -53 -6 -29 -6 -29 9 -10 12 15 27 20
64 20 70 -1 121 -13 144 -36 19 -19 19 -19 19 9 -1 54 -53 92 -127 92 -40 0
-58 -5 -77 -22z"/>
<path d="M4699 2871 c-2 -6 -55 -16 -116 -23 -103 -11 -113 -14 -113 -33 0
-46 9 -48 128 -33 78 10 113 11 116 4 3 -6 2 12 -1 39 -6 54 -9 62 -14 46z"/>
<path d="M308 2840 c-4 -25 -1 -29 26 -33 17 -3 32 -4 33 -3 1 0 -11 15 -27
33 l-28 31 -4 -28z"/>
<path d="M532 2830 c-6 -11 -24 -23 -38 -26 -19 -5 -22 -9 -12 -15 16 -11 59
-12 56 -1 -1 4 2 17 6 30 10 30 4 37 -12 12z"/>
<path d="M342 2675 c-63 -28 -78 -123 -28 -181 27 -32 107 -44 156 -24 71 29
82 152 17 194 -35 23 -106 29 -145 11z m148 -64 c28 -8 39 -43 20 -67 -17 -19
-178 -20 -204 -1 -24 18 -17 48 14 64 26 13 128 16 170 4z"/>
<path d="M4490 2571 l0 -99 38 -4 c50 -7 52 -2 8 18 -22 11 -36 25 -36 36 0
16 10 18 109 18 96 0 110 -2 114 -17 3 -10 5 11 5 47 0 36 -2 57 -5 48 -4 -16
-18 -18 -114 -18 -100 0 -110 2 -107 18 2 9 19 25 38 34 l35 18 -42 0 -43 0 0
-99z"/>
<path d="M4480 2379 c0 -12 13 -19 48 -23 126 -18 124 -16 29 -50 -47 -17 -87
-33 -90 -36 -2 -3 -7 -25 -10 -49 -3 -25 -3 -40 1 -34 5 8 40 6 120 -6 62 -10
115 -15 117 -12 12 11 3 17 -22 14 -16 -2 -66 3 -113 10 l-85 13 114 39 c91
32 115 45 122 64 5 13 8 25 7 26 -2 2 -52 10 -113 19 -60 9 -113 22 -117 29
-5 8 -8 7 -8 -4z"/>
<path d="M420 2349 c-107 -17 -120 -20 -120 -30 0 -6 7 -6 18 -1 9 5 42 12 72
16 30 4 71 9 90 12 31 5 25 -1 -62 -66 -77 -56 -98 -77 -98 -96 0 -29 2 -29
129 -9 52 8 98 12 103 9 4 -3 8 5 8 18 0 16 -3 19 -8 10 -8 -12 -139 -38 -148
-30 -2 3 27 26 66 53 66 46 70 50 70 87 0 36 -1 38 -32 37 -18 -1 -58 -5 -88
-10z"/>
<path d="M4421 2053 c-6 -21 -17 -59 -25 -85 -11 -37 -11 -45 0 -41 15 5 206
-47 215 -59 4 -7 29 55 29 73 0 2 -13 5 -28 6 -37 3 -82 20 -82 32 0 6 12 17
26 24 l27 14 -29 6 c-16 3 -38 9 -49 13 -19 7 -19 7 -2 -13 9 -11 17 -28 17
-37 0 -13 -5 -16 -17 -11 -10 3 -30 9 -46 12 -15 3 -30 10 -33 14 -11 18 7 47
37 59 34 14 34 15 -3 24 -25 6 -28 3 -37 -31z"/>
<path d="M505 2070 c-34 -13 -45 -34 -53 -96 -6 -55 -9 -59 -35 -62 -21 -3
-29 2 -36 20 -6 14 -10 17 -10 7 -1 -25 42 -59 76 -59 53 0 75 27 82 101 6 60
8 64 31 64 38 0 50 -46 22 -85 -28 -38 -28 -41 6 -29 28 9 28 12 22 56 -5 33
-16 54 -34 70 -29 25 -39 27 -71 13z"/>
<path d="M385 2036 c-26 -10 -30 -15 -27 -43 3 -32 22 -48 22 -19 0 7 10 25
21 40 26 33 23 37 -16 22z"/>
<path d="M4613 2033 c10 -12 22 -34 26 -49 l8 -29 8 38 c9 44 9 43 -30 53 -30
7 -30 7 -12 -13z"/>
<path d="M645 1836 c-6 -7 -53 -30 -105 -51 -52 -21 -96 -39 -98 -41 -2 -1 6
-19 17 -41 11 -21 20 -33 21 -27 0 7 47 31 104 55 l105 43 -15 35 c-18 43 -18
43 -29 27z"/>
<path d="M4380 1813 c-36 -13 -71 -62 -100 -137 -8 -23 -4 -26 92 -68 55 -23
103 -49 105 -56 8 -18 53 84 60 135 7 54 -13 88 -70 114 -43 19 -61 22 -87 12z
m67 -82 c63 -30 84 -59 69 -96 -6 -16 -4 -16 -148 48 -62 28 -63 29 -48 58 15
27 54 24 127 -10z"/>
<path d="M640 1634 c-81 -36 -104 -86 -71 -156 11 -24 29 -54 40 -66 l21 -24
35 22 c19 12 40 18 46 15 6 -4 4 6 -4 21 -20 37 -49 75 -42 53 4 -10 -6 -20
-30 -32 -44 -21 -42 -21 -55 2 -14 28 23 69 95 106 51 25 61 27 88 17 l32 -12
-30 30 c-37 37 -79 45 -125 24z"/>
<path d="M790 1557 c0 -10 -7 -31 -15 -47 -17 -34 -10 -38 21 -12 20 15 20 20
8 47 -9 20 -13 24 -14 12z"/>
<path d="M4216 1553 c-4 -10 -4 -14 0 -11 7 8 141 -80 163 -106 17 -20 7 -62
-19 -76 -15 -8 -28 -7 -52 6 -58 30 -137 86 -140 99 -2 7 -15 -7 -30 -32 -16
-24 -24 -42 -19 -38 6 3 44 -17 87 -45 42 -27 84 -50 94 -50 24 0 67 36 86 72
25 49 12 74 -69 125 -40 25 -77 52 -83 60 -10 11 -13 11 -18 -4z"/>
<path d="M875 1418 c4 -12 -136 -124 -171 -138 -9 -3 3 -27 38 -72 51 -66 51
-67 79 -52 41 21 46 35 10 28 -31 -7 -86 18 -79 36 3 7 126 105 156 124 7 4
20 2 30 -6 9 -7 1 9 -18 35 -36 50 -53 68 -45 45z"/>
<path d="M3996 1253 l-66 -77 27 -28 c29 -31 40 -31 24 0 -13 25 -15 75 -2 70
5 -1 45 -34 89 -73 65 -57 78 -73 69 -85 -6 -8 8 3 31 25 38 35 57 66 32 50
-10 -6 -161 117 -168 136 -6 16 27 21 59 10 43 -15 44 -10 5 21 l-34 27 -66
-76z"/>
<path d="M966 1134 c-43 -46 -84 -81 -90 -77 -6 3 5 -10 23 -30 34 -36 48 -47
37 -28 -8 12 159 162 170 153 5 -4 -7 10 -25 31 -19 20 -35 36 -35 36 -1 -1
-37 -39 -80 -85z"/>
<path d="M3818 1074 c-59 -38 -64 -107 -11 -141 24 -16 28 -16 83 4 61 22 90
17 90 -16 0 -35 -35 -54 -87 -47 l-47 6 24 -25 c22 -24 24 -24 52 -7 36 21 78
68 78 88 0 30 -31 74 -57 80 -15 4 -45 0 -72 -10 -57 -20 -77 -20 -85 -1 -15
40 31 70 83 55 35 -10 40 -1 13 23 -23 21 -19 21 -64 -9z"/>
<path d="M1129 1034 c-68 -43 -89 -129 -44 -183 67 -78 166 -54 210 52 20 48
11 79 -31 117 -40 34 -92 40 -135 14z m131 -19 c20 -24 5 -56 -56 -123 -58
-65 -86 -76 -104 -42 -14 26 3 59 65 128 48 53 73 63 95 37z"/>
<path d="M3473 831 c-66 -39 -86 -55 -64 -49 16 4 122 -170 116 -190 -4 -12
76 29 135 68 22 15 22 17 6 48 -17 32 -33 45 -22 17 8 -21 -13 -74 -35 -85
-16 -9 -24 0 -60 62 -23 40 -48 84 -56 97 -13 20 -13 25 -2 32 20 13 63 11 77
-3 19 -19 23 -4 6 20 -20 29 -27 27 -101 -17z"/>
<path d="M1523 795 c-36 -15 -70 -63 -79 -112 -8 -42 19 -87 65 -109 20 -9 48
-22 62 -29 25 -12 27 -11 48 32 12 25 21 47 19 48 -14 12 -69 34 -64 26 7 -11
-17 -66 -33 -75 -21 -13 -41 7 -41 41 0 45 56 152 88 166 22 10 22 12 5 18
-26 11 -34 10 -70 -6z"/>
<path d="M3560 772 c0 -10 -5 -23 -12 -30 -9 -9 -6 -12 13 -12 14 0 31 -6 38
-12 7 -7 4 6 -8 30 -23 46 -31 52 -31 24z"/>
<path d="M1643 765 c3 -11 9 -33 13 -49 l7 -29 14 27 c8 15 13 29 11 29 -2 1
-14 11 -27 22 -24 20 -24 20 -18 0z"/>
<path d="M3195 700 c-22 -10 -33 -19 -24 -19 18 -1 94 -183 86 -205 -5 -11 2
-11 34 2 29 11 38 20 34 31 -50 134 -81 211 -85 210 -3 0 -23 -9 -45 -19z"/>
<path d="M1787 704 c13 -6 -49 -203 -68 -215 -10 -6 131 -59 157 -59 7 0 14 8
17 18 2 9 8 26 12 37 8 19 6 18 -17 -2 -28 -27 -104 -34 -95 -9 3 8 11 32 18
55 7 23 15 41 19 41 11 0 27 -23 32 -45 3 -14 8 -7 20 27 l17 48 -25 -17 c-37
-24 -47 -6 -28 49 15 44 17 46 39 36 13 -6 29 -24 35 -41 11 -34 14 -33 24 5
6 25 3 27 -72 52 -65 22 -124 35 -85 20z"/>
<path d="M2975 628 c-2 -7 -10 -66 -18 -130 -9 -83 -10 -118 -2 -118 6 0 9 16
7 40 -4 34 -1 41 19 49 18 7 19 10 7 10 -14 1 -18 10 -18 44 l1 42 24 -30 c14
-16 23 -36 20 -42 -2 -7 2 -13 9 -13 12 0 41 -47 38 -62 -3 -10 1 -10 52 3
l43 11 -21 21 c-12 12 -46 59 -76 104 -53 79 -76 98 -85 71z"/>
<path d="M2044 621 c9 -14 -22 -201 -37 -218 -6 -9 -5 -13 5 -13 7 0 14 10 16
23 2 30 31 179 35 183 2 2 18 -46 37 -107 31 -102 47 -129 77 -129 9 0 48 198
40 206 -2 3 -8 -16 -12 -42 -13 -92 -19 -91 -48 5 -17 57 -32 91 -41 91 -7 0
-28 3 -46 7 -24 4 -31 3 -26 -6z"/>
<path d="M3386 577 c-4 -21 -16 -47 -27 -58 -23 -23 -22 -23 25 -4 40 17 40
16 22 65 l-13 35 -7 -38z"/>
<path d="M2200 596 c0 -9 30 -14 35 -6 4 6 -3 10 -14 10 -12 0 -21 -2 -21 -4z"/>
<path d="M2327 576 c10 -15 2 -210 -9 -224 -9 -10 6 -12 83 -10 l94 3 3 32 3
33 -30 -30 c-18 -19 -40 -30 -57 -30 -26 0 -27 0 -20 52 4 29 10 55 13 58 2 3
16 -8 29 -25 l24 -30 0 55 c0 52 -1 53 -16 32 -27 -39 -44 -28 -44 28 0 46 2
50 24 50 15 0 33 -11 45 -26 l21 -27 0 31 0 31 -84 3 c-46 2 -82 -1 -79 -6z"/>
<path d="M2693 583 c18 -5 37 -40 37 -68 0 -7 -7 -20 -15 -28 -13 -13 -13 -16
0 -27 8 -7 15 -26 15 -42 0 -45 17 -68 49 -68 16 0 34 7 41 16 11 12 11 15 0
12 -9 -2 -16 11 -21 36 -3 22 -14 45 -22 51 -14 10 -14 13 4 28 45 39 6 98
-63 96 -24 -1 -35 -3 -25 -6z"/>
<path d="M2596 572 c10 -6 32 -200 26 -224 -1 -5 16 -8 38 -8 27 0 38 4 35 13
-2 6 -6 46 -10 87 -10 138 -11 140 -59 140 -22 0 -36 -4 -30 -8z"/>
</g>
</svg>
